<mxfile host="65bd71144e">
    <diagram id="t5L-v7SX4VSppeNMhdHv" name="Page-1">
        <mxGraphModel dx="1028" dy="719" grid="1" gridSize="10" guides="1" tooltips="1" connect="1" arrows="1" fold="1" page="1" pageScale="1" pageWidth="850" pageHeight="1100" math="0" shadow="0">
            <root>
                <mxCell id="0"/>
                <mxCell id="1" parent="0"/>
                <mxCell id="2" value="Actor" style="shape=umlActor;verticalLabelPosition=bottom;verticalAlign=top;html=1;outlineConnect=0;" parent="1" vertex="1">
                    <mxGeometry x="70" y="120" width="30" height="60" as="geometry"/>
                </mxCell>
                <mxCell id="3" value="Cloud transfer" style="shape=callout;whiteSpace=wrap;html=1;perimeter=calloutPerimeter;" parent="1" vertex="1">
                    <mxGeometry x="60" y="40" width="120" height="80" as="geometry"/>
                </mxCell>
                <mxCell id="6" value="" style="edgeStyle=none;html=1;" parent="1" source="4" target="5" edge="1">
                    <mxGeometry relative="1" as="geometry"/>
                </mxCell>
                <mxCell id="4" value="List contact" style="rounded=1;whiteSpace=wrap;html=1;" parent="1" vertex="1">
                    <mxGeometry x="140" y="130" width="120" height="60" as="geometry"/>
                </mxCell>
                <mxCell id="8" value="" style="edgeStyle=none;html=1;" parent="1" source="5" target="7" edge="1">
                    <mxGeometry relative="1" as="geometry"/>
                </mxCell>
                <mxCell id="5" value="Server" style="ellipse;shape=cloud;whiteSpace=wrap;html=1;fillColor=#d5e8d4;strokeColor=#82b366;" parent="1" vertex="1">
                    <mxGeometry x="350" y="120" width="120" height="80" as="geometry"/>
                </mxCell>
                <mxCell id="9" style="edgeStyle=none;html=1;entryX=1;entryY=1;entryDx=0;entryDy=0;entryPerimeter=0;" parent="1" source="7" target="2" edge="1">
                    <mxGeometry relative="1" as="geometry"/>
                </mxCell>
                <mxCell id="10" value="first divice" style="swimlane;horizontal=0;whiteSpace=wrap;html=1;" parent="1" vertex="1">
                    <mxGeometry x="20" y="20" width="480" height="340" as="geometry"/>
                </mxCell>
                <mxCell id="7" value="Access code" style="shape=document;whiteSpace=wrap;html=1;boundedLbl=1;fillColor=#dae8fc;strokeColor=#6c8ebf;" parent="10" vertex="1">
                    <mxGeometry x="120" y="210" width="120" height="80" as="geometry"/>
                </mxCell>
                <mxCell id="11" value="second device" style="swimlane;horizontal=0;whiteSpace=wrap;html=1;" parent="1" vertex="1">
                    <mxGeometry x="20" y="390" width="480" height="280" as="geometry"/>
                </mxCell>
                <mxCell id="12" value="Actor" style="shape=umlActor;verticalLabelPosition=bottom;verticalAlign=top;html=1;outlineConnect=0;" parent="11" vertex="1">
                    <mxGeometry x="40" y="70" width="30" height="60" as="geometry"/>
                </mxCell>
                <mxCell id="15" value="Acess code" style="shape=callout;whiteSpace=wrap;html=1;perimeter=calloutPerimeter;" parent="11" vertex="1">
                    <mxGeometry x="70" y="10" width="120" height="80" as="geometry"/>
                </mxCell>
                <mxCell id="18" value="" style="edgeStyle=none;html=1;" parent="11" source="16" target="17" edge="1">
                    <mxGeometry relative="1" as="geometry"/>
                </mxCell>
                <mxCell id="16" value="Acces code" style="rounded=1;whiteSpace=wrap;html=1;fillColor=#dae8fc;strokeColor=#6c8ebf;" parent="11" vertex="1">
                    <mxGeometry x="150" y="80" width="120" height="60" as="geometry"/>
                </mxCell>
                <mxCell id="20" style="edgeStyle=none;html=1;entryX=1;entryY=0.5;entryDx=0;entryDy=0;" parent="11" source="17" target="19" edge="1">
                    <mxGeometry relative="1" as="geometry"/>
                </mxCell>
                <mxCell id="17" value="Server" style="ellipse;shape=cloud;whiteSpace=wrap;html=1;fillColor=#d5e8d4;strokeColor=#82b366;" parent="11" vertex="1">
                    <mxGeometry x="330" y="70" width="120" height="80" as="geometry"/>
                </mxCell>
                <mxCell id="21" style="edgeStyle=none;html=1;" parent="11" source="19" target="12" edge="1">
                    <mxGeometry relative="1" as="geometry"/>
                </mxCell>
                <mxCell id="19" value="List contact" style="whiteSpace=wrap;html=1;aspect=fixed;fillColor=#fff2cc;strokeColor=#d6b656;" parent="11" vertex="1">
                    <mxGeometry x="170" y="160" width="80" height="80" as="geometry"/>
                </mxCell>
                <mxCell id="22" value="venom code" style="swimlane;whiteSpace=wrap;html=1;" parent="1" vertex="1">
                    <mxGeometry x="20" y="680" width="480" height="290" as="geometry"/>
                </mxCell>
                <mxCell id="23" value="labubu" style="shape=umlActor;verticalLabelPosition=bottom;verticalAlign=top;html=1;outlineConnect=0;fillColor=#dae8fc;strokeColor=#6c8ebf;" parent="22" vertex="1">
                    <mxGeometry x="21" y="110" width="30" height="60" as="geometry"/>
                </mxCell>
                <mxCell id="24" value="Get all contact on server" style="shape=callout;whiteSpace=wrap;html=1;perimeter=calloutPerimeter;fillColor=#f8cecc;strokeColor=#b85450;" parent="22" vertex="1">
                    <mxGeometry x="10" y="40" width="120" height="80" as="geometry"/>
                </mxCell>
                <mxCell id="29" value="" style="edgeStyle=none;html=1;" parent="22" source="25" target="28" edge="1">
                    <mxGeometry relative="1" as="geometry"/>
                </mxCell>
                <mxCell id="25" value="Acess code[0001]" style="rounded=1;whiteSpace=wrap;html=1;fillColor=#f5f5f5;strokeColor=#666666;fontColor=#333333;" parent="22" vertex="1">
                    <mxGeometry x="150" y="40" width="120" height="60" as="geometry"/>
                </mxCell>
                <mxCell id="30" value="" style="edgeStyle=none;html=1;" parent="22" source="26" target="28" edge="1">
                    <mxGeometry relative="1" as="geometry"/>
                </mxCell>
                <mxCell id="26" value="Acess code[0002]" style="rounded=1;whiteSpace=wrap;html=1;fillColor=#f5f5f5;strokeColor=#666666;fontColor=#333333;" parent="22" vertex="1">
                    <mxGeometry x="150" y="110" width="120" height="60" as="geometry"/>
                </mxCell>
                <mxCell id="27" value="..." style="text;html=1;align=center;verticalAlign=middle;whiteSpace=wrap;rounded=0;" parent="22" vertex="1">
                    <mxGeometry x="180" y="220" width="60" height="30" as="geometry"/>
                </mxCell>
                <mxCell id="32" value="" style="edgeStyle=none;html=1;" parent="22" source="28" target="31" edge="1">
                    <mxGeometry relative="1" as="geometry"/>
                </mxCell>
                <mxCell id="28" value="Server" style="ellipse;shape=cloud;whiteSpace=wrap;html=1;fillColor=#d5e8d4;strokeColor=#82b366;" parent="22" vertex="1">
                    <mxGeometry x="345" y="60" width="120" height="80" as="geometry"/>
                </mxCell>
                <mxCell id="33" style="edgeStyle=none;html=1;" parent="22" source="31" target="23" edge="1">
                    <mxGeometry relative="1" as="geometry"/>
                </mxCell>
                <mxCell id="31" value="List contact" style="whiteSpace=wrap;html=1;aspect=fixed;fillColor=#fff2cc;strokeColor=#d6b656;" parent="22" vertex="1">
                    <mxGeometry x="170" y="195" width="80" height="80" as="geometry"/>
                </mxCell>
                <mxCell id="34" style="edgeStyle=none;html=1;exitX=1;exitY=0.3333333333333333;exitDx=0;exitDy=0;exitPerimeter=0;entryX=0.288;entryY=0.652;entryDx=0;entryDy=0;entryPerimeter=0;" parent="22" source="23" target="24" edge="1">
                    <mxGeometry relative="1" as="geometry"/>
                </mxCell>
                <mxCell id="41" value="" style="edgeStyle=none;html=1;" parent="1" source="35" target="36" edge="1">
                    <mxGeometry relative="1" as="geometry"/>
                </mxCell>
                <mxCell id="35" value="Acces code" style="rounded=1;whiteSpace=wrap;html=1;fillColor=#f5f5f5;fontColor=#333333;strokeColor=#666666;" parent="1" vertex="1">
                    <mxGeometry x="640" y="40" width="120" height="60" as="geometry"/>
                </mxCell>
                <mxCell id="40" value="" style="edgeStyle=none;html=1;" parent="1" source="36" target="37" edge="1">
                    <mxGeometry relative="1" as="geometry"/>
                </mxCell>
                <mxCell id="36" value="Encript" style="shape=process;whiteSpace=wrap;html=1;backgroundOutline=1;fillColor=#f5f5f5;fontColor=#333333;strokeColor=#666666;" parent="1" vertex="1">
                    <mxGeometry x="640" y="140" width="120" height="60" as="geometry"/>
                </mxCell>
                <mxCell id="39" value="" style="edgeStyle=none;html=1;" parent="1" source="37" target="38" edge="1">
                    <mxGeometry relative="1" as="geometry"/>
                </mxCell>
                <mxCell id="37" value="server" style="ellipse;shape=cloud;whiteSpace=wrap;html=1;fillColor=#d5e8d4;strokeColor=#82b366;" parent="1" vertex="1">
                    <mxGeometry x="640" y="230" width="120" height="80" as="geometry"/>
                </mxCell>
                <mxCell id="38" value="check in our db" style="shape=cylinder3;whiteSpace=wrap;html=1;boundedLbl=1;backgroundOutline=1;size=15;fillColor=#d5e8d4;strokeColor=#82b366;" parent="1" vertex="1">
                    <mxGeometry x="670" y="340" width="60" height="80" as="geometry"/>
                </mxCell>
                <mxCell id="45" value="Full securetu: cloud:&lt;font style=&quot;color: rgb(255, 102, 102);&quot;&gt;code@pincode&lt;/font&gt;@1" style="text;html=1;align=center;verticalAlign=middle;whiteSpace=wrap;rounded=0;" parent="1" vertex="1">
                    <mxGeometry x="20" y="1020" width="300" height="30" as="geometry"/>
                </mxCell>
                <mxCell id="47" value="&lt;span style=&quot;color: rgb(0, 0, 0); font-family: Helvetica; font-size: 12px; font-style: normal; font-variant-ligatures: normal; font-variant-caps: normal; font-weight: 400; letter-spacing: normal; orphans: 2; text-align: center; text-indent: 0px; text-transform: none; widows: 2; word-spacing: 0px; -webkit-text-stroke-width: 0px; white-space: normal; background-color: rgb(251, 251, 251); text-decoration-thickness: initial; text-decoration-style: initial; text-decoration-color: initial; float: none; display: inline !important;&quot;&gt;Full securetu: cloud:B11344&lt;/span&gt;&lt;font style=&quot;forced-color-adjust: none; color: light-dark(rgb(255, 102, 102), rgb(224, 93, 93)); scrollbar-color: light-dark(#e2e2e2, #4b4b4b)&lt;br/&gt;&lt;span style=&quot;&gt;@&lt;/font&gt;&lt;span style=&quot;color: rgb(0, 0, 0); font-family: Helvetica; font-size: 12px; font-style: normal; font-variant-ligatures: normal; font-variant-caps: normal; font-weight: 400; letter-spacing: normal; orphans: 2; text-align: center; text-indent: 0px; text-transform: none; widows: 2; word-spacing: 0px; -webkit-text-stroke-width: 0px; white-space: normal; background-color: rgb(251, 251, 251); text-decoration-thickness: initial; text-decoration-style: initial; text-decoration-color: initial; float: none; display: inline !important;&quot;&gt;@1&lt;/span&gt;" style="text;whiteSpace=wrap;html=1;" parent="1" vertex="1">
                    <mxGeometry x="60" y="1050" width="200" height="30" as="geometry"/>
                </mxCell>
            </root>
        </mxGraphModel>
    </diagram>
</mxfile>